# xmcd
#
# Track frame offsets:
#	150
#	15417
#	29702
#	44422
#	58025
#	71691
#	88436
#	107333
#	124288
#	138202
#	151302
#	166242
#	182556
#	192916
#	208647
#	222454
#	238488
#	253561
#	268710
#	283220
#	301573
#	315551
#	331025
#
# Disc length: 4633 seconds
#
# Revision: 0
# Processed by: cddbd v1.5.2PL0 Copyright (c) Steve Scherf et al.
# Submitted via: dBpowerAMP V4.0
#
DISCID=52121717
DTITLE=Various Artist - ERG Nu Country Traxx Vol. 248 CAN
DYEAR=2015
DGENRE=Country
TTITLE0=Brad Paisley - Crushin' It
TTITLE1=Chad Brownlee - When The Lights Go Down
TTITLE2=Miranda Lambert - Little Red Wagon
TTITLE3=Frankie Ballard - Young and Crazy
TTITLE4=Keith Urban ft. Eric Church - Raise 'Em Up
TTITLE5=Reba - Going Out Like That
TTITLE6=Kid Rock - First Kiss
TTITLE7=Big and Rich  - Run Away With You
TTITLE8=Austin Webb - All Country On You
TTITLE9=Leah Daniels - Go Back
TTITLE10=Jason Blaine - Country Side
TTITLE11=Maddie and Tae - Fly
TTITLE12=Kip Moore - I'm To Blame
TTITLE13=Beverley Mahood - Atmosphere
TTITLE14=Waterloo Revival (Big Machine Records) - Hit The Road
TTITLE15=Jess Moskaluke - Night We Won't Forget
TTITLE16=Toby Keith - Drunk Americans [Lyric Substitution Edit]
TTITLE17=Will Hoge  - Middle Of America
TTITLE18=Quentin Reddy - Moonlight Ride
TTITLE19=Mickey Guyton  - Better Than You Left Me
TTITLE20=Katie Armiger - One Night Between Friends
TTITLE21=Zac Brown Band - Homegrown
TTITLE22=A Thousand Horses  - Smoke
EXTD=
EXTT0=
EXTT1=
EXTT2=
EXTT3=
EXTT4=
EXTT5=
EXTT6=
EXTT7=
EXTT8=
EXTT9=
EXTT10=
EXTT11=
EXTT12=
EXTT13=
EXTT14=
EXTT15=
EXTT16=
EXTT17=
EXTT18=
EXTT19=
EXTT20=
EXTT21=
EXTT22=
PLAYORDER=
